{"accessors":[{"bufferView":0,"byteOffset":0,"componentType":5126,"count":26,"max":[682.0,596.0,3.0],"min":[17.0,14.0,0.0],"type":"VEC3"},{"bufferView":1,"byteOffset":0,"componentType":5125,"count":72,"type":"SCALAR"}],"asset":{"generator":"VTK","version":"2.0"},"bufferViews":[{"buffer":0,"byteLength":312,"byteOffset":0,"target":34962},{"buffer":1,"byteLength":288,"byteOffset":0,"target":34963}],"buffers":[{"byteLength":312,"uri":"data:application/octet-stream;base64,"},{"byteLength":288,"uri":"data:application/octet-stream;base64,"}],"cameras":[{"perspective":{"aspectRatio":1.3333333333333333,"yfov":0.5235987755982988,"zfar":1000.01,"znear":0.01},"type":"perspective"}],"materials":[{"pbrMetallicRoughness":{"baseColorFactor":[0.8235294117647058,0.7058823529411765,0.5490196078431373,1.0],"metallicFactor":0.0,"roughnessFactor":1.0}}],"meshes":[{"name":"mesh0","primitives":[{"attributes":{"POSITION":0},"indices":1,"material":0,"mode":4}]}],"nodes":[{"matrix":[0.0,0.0,1.0000000000000004,0.0,1.0000000000000004,0.0,0.0,0.0,0.0,1.0000000000000004,0.0,0.0,0.0,0.0,0.0,1.0],"mesh":0,"name":"mesh0"},{"camera":0,"matrix":[1.0,-0.0,0.0,-0.0,-0.0,1.0,-0.0,0.0,0.0,-0.0,1.0,-0.0,-0.0,0.0,1.0,1.0],"name":"Camera Node"},{"children":[0,1],"name":"Renderer Node"}],"scene":0,"scenes":[{"name":"Layer 0","nodes":[2]}]}